<svg id="レイヤー_1" data-name="レイヤー 1" xmlns="http://www.w3.org/2000/svg" viewBox="0 0 513 179"><defs><style>.cls-1{fill:#fff;}.cls-2,.cls-3{fill:#070d59;}.cls-3{font-size:84px;font-family:ArialRoundedMTBold, Arial Rounded MT Bold;}</style></defs><title>help</title><rect class="cls-1" x="5" y="5" width="503" height="169" rx="7"/><path class="cls-2" d="M568,151a2,2,0,0,1,2,2V308a2,2,0,0,1-2,2H79a2,2,0,0,1-2-2V153a2,2,0,0,1,2-2H568m0-10H79a12,12,0,0,0-12,12V308a12,12,0,0,0,12,12H568a12,12,0,0,0,12-12V153a12,12,0,0,0-12-12Z" transform="translate(-67 -141)"/><text class="cls-3" transform="translate(161.94 114.48)">Links</text></svg>